:FULLY-SPECIFIED
:FORCE-ALL-JOINTS-BE-3DOF
:DEGREES
306
root -0.848063 15.4624 -36.2465 19.3999 65.402 16.5736
lfemur -19.5825 18.8538 -23.5489
ltibia 57.0648 0 0
lfoot -27.7691 29.146 0
ltoes 0.621048 0 0
rfemur -40.3579 -10.3819 13.5453
rtibia 77.5889 0 0
rfoot -11.1475 -17.1237 0
rtoes -20.6286 0 0
lowerback 17.521 0.207803 -6.149
upperback -1.38359 -1.12457 2.55007
thorax -11.075 -0.0103686 6.73619
lowerneck -6.33825 3.60425 0.837208
upperneck 5.15936 5.06672 -4.262
head 2.95214 2.39109 -1.29422
lclavicle -3.36501e-014 -1.51843e-015 0
lhumerus 23.5899 -22.3614 64.7891
lradius 26.1924 0 0
lwrist -47.0948 0 0
lhand -21.3569 38.7902 0
lfingers 7.12502 0 0
lthumb 5.02978 68.6998 0
rclavicle -3.36501e-014 -1.51843e-015 0
rhumerus -53.2418 23.5338 -89.53
rradius 125.768 0 0
rwrist -63.3433 0 0
rhand 44.2355 -10.4601 0
rfingers 7.12502 0 0
rthumb 66.2256 -19.5611 0
307
root -0.733631 15.4469 -36.2089 20.6965 66.9965 18.7078
lfemur -18.2092 17.3637 -23.6287
ltibia 56.5619 0 0
lfoot -27.5153 28.9948 0
ltoes -0.351111 0 0
rfemur -42.2093 -9.96768 13.7386
rtibia 78.7058 0 0
rfoot -11.0865 -15.5277 0
rtoes -19.6236 0 0
lowerback 18.2111 0.223403 -6.93068
upperback -1.20269 -1.31197 2.42241
thorax -11.2337 -0.0532234 7.10688
lowerneck -6.26444 3.25536 0.583886
upperneck 5.09403 4.5909 -3.872
head 2.87386 2.16435 -1.14778
lclavicle -4.05191e-014 -2.1026e-015 0
lhumerus 25.0589 -25.3185 65.0789
lradius 27.0465 0 0
lwrist -45.384 0 0
lhand -21.8943 38.2565 0
lfingers 7.12502 0 0
lthumb 4.51094 68.1815 0
rclavicle -4.05191e-014 -2.1026e-015 0
rhumerus -52.0164 25.2551 -89.3056
rradius 127.288 0 0
rwrist -62.1853 0 0
rhand 43.0335 -10.556 0
rfingers 7.12502 0 0
rthumb 65.2208 -20.8869 0
308
root -0.6192 15.4313 -36.1713 22.1085 68.5446 20.94
lfemur -16.8481 15.8753 -23.6936
ltibia 56.0684 0 0
lfoot -27.2645 28.8459 0
ltoes -1.32543 0 0
rfemur -44.0393 -9.55853 13.9129
rtibia 79.7568 0 0
rfoot -11.0111 -13.9173 0
rtoes -18.5898 0 0
lowerback 18.8826 0.245903 -7.69698
upperback -1.0252 -1.48533 2.29172
thorax -11.388 -0.0908012 7.46118
lowerneck -6.18592 2.90011 0.323705
upperneck 5.02397 4.10665 -3.47598
head 2.79591 1.93344 -0.998394
lclavicle -4.70887e-014 -2.67206e-015 0
lhumerus 26.3561 -28.2402 65.43
lradius 28.0369 0 0
lwrist -43.5266 0 0
lhand -22.4055 37.7346 0
lfingers 7.12502 0 0
lthumb 4.01743 67.674 0
rclavicle -4.70887e-014 -2.67206e-015 0
rhumerus -50.6603 26.9307 -89.0384
rradius 128.587 0 0
rwrist -60.9023 0 0
rhand 41.7166 -10.6959 0
rfingers 7.12502 0 0
rthumb 64.1061 -22.2729 0
309
root -0.504768 15.4157 -36.1337 23.6463 70.0361 23.2714
lfemur -15.5073 14.4064 -23.7424
ltibia 55.5859 0 0
lfoot -27.0237 28.7056 0
ltoes -2.28725 0 0
rfemur -45.8257 -9.1576 14.0613
rtibia 80.7232 0 0
rfoot -10.9142 -12.3091 0
rtoes -17.5331 0 0
lowerback 19.5254 0.275709 -8.43996
upperback -0.853054 -1.64176 2.15912
thorax -11.5348 -0.122238 7.79477
lowerneck -6.10368 2.53903 0.0571856
upperneck 4.94949 3.61485 -3.07644
head 2.71935 1.69869 -0.846821
lclavicle -5.32596e-014 -3.21737e-015 0
lhumerus 27.44 -31.0719 65.8441
lradius 29.1513 0 0
lwrist -41.5331 0 0
lhand -22.8789 37.2322 0
lfingers 7.12502 0 0
lthumb 3.5604 67.1843 0
rclavicle -5.32596e-014 -3.21737e-015 0
rhumerus -49.1701 28.5258 -88.7249
rradius 129.633 0 0
rwrist -59.5077 0 0
rhand 40.295 -10.8791 0
rfingers 7.12502 0 0
rthumb 62.8892 -23.7006 0
310
root -0.390336 15.4002 -36.0961 25.3208 71.4608 25.7035
lfemur -14.1945 12.9746 -23.7738
ltibia 55.1159 0 0
lfoot -26.7994 28.5799 0
ltoes -3.22191 0 0
rfemur -47.5462 -8.768 14.1769
rtibia 81.5863 0 0
rfoot -10.7892 -10.7194 0
rtoes -16.4589 0 0
lowerback 20.1292 0.313227 -9.15174
upperback -0.68821 -1.7784 2.02571
thorax -11.6713 -0.146669 8.10336
lowerneck -6.01869 2.17265 -0.215152
upperneck 4.87095 3.11634 -2.67586
head 2.64525 1.46038 -0.693837
lclavicle -5.89322e-014 -3.7291e-015 0
lhumerus 28.2693 -33.7593 66.323
lradius 30.3772 0 0
lwrist -39.4139 0 0
lhand -23.303 36.7567 0
lfingers 7.12502 0 0
lthumb 3.15103 66.7197 0
rclavicle -5.89322e-014 -3.7291e-015 0
rhumerus -47.5421 30.0054 -88.3618
rradius 130.392 0 0
rwrist -58.015 0 0
rhand 38.7792 -11.1045 0
rfingers 7.12502 0 0
rthumb 61.5778 -25.1513 0
311
root -0.275905 15.3846 -36.0585 27.1426 72.8086 28.2373
lfemur -12.9176 11.5975 -23.7866
ltibia 54.6599 0 0
lfoot -26.5987 28.475 0
ltoes -4.11474 0 0
rfemur -49.1785 -8.39285 14.2529
rtibia 82.3274 0 0
rfoot -10.6291 -9.16472 0
rtoes -15.3728 0 0
lowerback 20.6838 0.358861 -9.82439
upperback -0.532619 -1.89235 1.89261
thorax -11.7945 -0.16323 8.38261
lowerneck -5.93194 1.80149 -0.492785
upperneck 4.78866 2.61199 -2.27675
head 2.57467 1.21883 -0.540215
lclavicle -6.40069e-014 -4.19781e-015 0
lhumerus 28.8024 -36.2478 66.8682
lradius 31.7024 0 0
lwrist -37.1792 0 0
lhand -23.666 36.3156 0
lfingers 7.12502 0 0
lthumb 2.80048 66.2873 0
rclavicle -6.40069e-014 -4.19781e-015 0
rhumerus -45.7728 31.3348 -87.9455
rradius 130.83 0 0
rwrist -56.4379 0 0
rhand 37.1795 -11.3712 0
rfingers 7.12502 0 0
rthumb 60.1796 -26.6066 0
312
root -0.161473 15.369 -36.0209 29.1223 74.0694 30.874
lfemur -11.6846 10.2929 -23.7794
ltibia 54.2197 0 0
lfoot -26.4282 28.3971 0
ltoes -4.95109 0 0
rfemur -50.7004 -8.03525 14.2822
rtibia 82.928 0 0
rfoot -10.4269 -7.66167 0
rtoes -14.2806 0 0
lowerback 21.1793 0.41302 -10.45
upperback -0.38823 -1.98073 1.76091
thorax -11.9016 -0.171056 8.62823
lowerneck -5.8444 1.42606 -0.775194
upperneck 4.70297 2.10265 -1.8816
head 2.50868 0.974339 -0.386726
lclavicle -6.83842e-014 -4.61408e-015 0
lhumerus 28.9979 -38.4829 67.4814
lradius 33.1145 0 0
lwrist -34.8394 0 0
lhand -23.9565 35.9164 0
lfingers 7.12502 0 0
lthumb 2.51992 65.8941 0
rclavicle -6.83842e-014 -4.61408e-015 0
rhumerus -43.8585 32.4789 -87.4726
rradius 130.915 0 0
rwrist -54.7897 0 0
rhand 35.5062 -11.6783 0
rfingers 7.12502 0 0
rthumb 58.7025 -28.048 0
313
root -0.0470417 15.3535 -35.9833 31.2705 75.2328 33.615
lfemur -10.5033 9.07836 -23.751
ltibia 53.7966 0 0
lfoot -26.2947 28.3521 0
ltoes -5.71629 0 0
rfemur -52.0895 -7.69833 14.2581
rtibia 83.3692 0 0
rfoot -10.1759 -6.22669 0
rtoes -13.1877 0 0
lowerback 21.6052 0.476107 -11.0207
upperback -0.256997 -2.04067 1.63174
thorax -11.9896 -0.169285 8.83589
lowerneck -5.75706 1.04691 -1.06186
upperneck 4.6142 1.5892 -1.49292
head 2.44833 0.727212 -0.234142
lclavicle -7.19647e-014 -4.96846e-015 0
lhumerus 28.8144 -40.4101 68.1644
lradius 34.6012 0 0
lwrist -32.4048 0 0
lhand -24.163 35.5668 0
lfingers 7.12502 0 0
lthumb 2.32052 65.5474 0
rclavicle -7.19647e-014 -4.96846e-015 0
rhumerus -41.7957 33.403 -86.9397
rradius 130.612 0 0
rwrist -53.084 0 0
rhand 33.7697 -12.0249 0
rfingers 7.12502 0 0
rthumb 57.154 -29.4569 0
314
root 0.0673899 15.3379 -35.9457 33.598 76.2888 36.4615
lfemur -9.3816 7.97163 -23.7
ltibia 53.3923 0 0
lfoot -26.2051 28.3464 0
ltoes -6.39569 0 0
rfemur -53.3236 -7.38519 14.1736
rtibia 83.6325 0 0
rfoot -9.86911 -4.87629 0
rtoes -12.0998 0 0
lowerback 21.9516 0.548528 -11.5285
upperback -0.140868 -2.06928 1.50619
thorax -12.0557 -0.15705 9.00128
lowerneck -5.6709 0.664546 -1.35225
upperneck 4.52269 1.07249 -1.1132
head 2.3947 0.477754 -0.0832344
lclavicle -7.46488e-014 -5.25152e-015 0
lhumerus 28.2105 -41.9748 68.9188
lradius 36.1501 0 0
lwrist -29.8858 0 0
lhand -24.2737 35.2742 0
lfingers 7.12502 0 0
lthumb 2.21343 65.2542 0
rclavicle -7.46488e-014 -5.25152e-015 0
rhumerus -39.5808 34.072 -86.3432
rradius 129.889 0 0
rwrist -51.3343 0 0
rhand 31.9803 -12.4099 0
rfingers 7.12502 0 0
rthumb 55.5419 -30.8147 0
